<svg width="18" height="18" viewBox="0 0 18 18" fill="none" xmlns="http://www.w3.org/2000/svg">
<g id="Component 1">
<path id="Vector (Stroke)" fill-rule="evenodd" clip-rule="evenodd" d="M16.7102 3.53975C16.9299 3.75942 16.9299 4.11558 16.7102 4.33525L9.96025 11.0852C9.74058 11.3049 9.38442 11.3049 9.16475 11.0852L6.75 8.6705L2.08525 13.3352C1.86558 13.5549 1.50942 13.5549 1.28975 13.3352C1.07008 13.1156 1.07008 12.7594 1.28975 12.5398L6.35225 7.47725C6.57192 7.25758 6.92808 7.25758 7.14775 7.47725L9.5625 9.892L15.9148 3.53975C16.1344 3.32008 16.4906 3.32008 16.7102 3.53975Z" fill="#06B470"/>
<path id="Vector (Stroke)_2" fill-rule="evenodd" clip-rule="evenodd" d="M11.25 3.9375C11.25 3.62684 11.5018 3.375 11.8125 3.375H16.3125C16.6232 3.375 16.875 3.62684 16.875 3.9375V8.4375C16.875 8.74816 16.6232 9 16.3125 9C16.0018 9 15.75 8.74816 15.75 8.4375V4.5H11.8125C11.5018 4.5 11.25 4.24816 11.25 3.9375Z" fill="#06B470"/>
</g>
</svg>
