<svg width="19" height="18" viewBox="0 0 19 18" fill="none" xmlns="http://www.w3.org/2000/svg">
<g id="Component 1">
<path id="Vector (Stroke)" fill-rule="evenodd" clip-rule="evenodd" d="M1.78975 4.66475C2.00942 4.44508 2.36558 4.44508 2.58525 4.66475L7.25 9.3295L9.66475 6.91475C9.88442 6.69508 10.2406 6.69508 10.4602 6.91475L17.2102 13.6648C17.4299 13.8844 17.4299 14.2406 17.2102 14.4602C16.9906 14.6799 16.6344 14.6799 16.4148 14.4602L10.0625 8.108L7.64775 10.5227C7.42808 10.7424 7.07192 10.7424 6.85225 10.5227L1.78975 5.46025C1.57008 5.24058 1.57008 4.88442 1.78975 4.66475Z" fill="#F74E2C"/>
<path id="Vector (Stroke)_2" fill-rule="evenodd" clip-rule="evenodd" d="M16.8125 9C17.1232 9 17.375 9.25184 17.375 9.5625V14.0625C17.375 14.3732 17.1232 14.625 16.8125 14.625H12.3125C12.0018 14.625 11.75 14.3732 11.75 14.0625C11.75 13.7518 12.0018 13.5 12.3125 13.5H16.25V9.5625C16.25 9.25184 16.5018 9 16.8125 9Z" fill="#F74E2C"/>
</g>
</svg>
