<svg width="19" height="18" viewBox="0 0 19 18" fill="none" xmlns="http://www.w3.org/2000/svg">
<g id="Component 1">
<path id="Vector (Stroke)" fill-rule="evenodd" clip-rule="evenodd" d="M17.2102 3.53975C17.4299 3.75942 17.4299 4.11558 17.2102 4.33525L10.4602 11.0852C10.2406 11.3049 9.88442 11.3049 9.66475 11.0852L7.25 8.6705L2.58525 13.3352C2.36558 13.5549 2.00942 13.5549 1.78975 13.3352C1.57008 13.1156 1.57008 12.7594 1.78975 12.5398L6.85225 7.47725C7.07192 7.25758 7.42808 7.25758 7.64775 7.47725L10.0625 9.892L16.4148 3.53975C16.6344 3.32008 16.9906 3.32008 17.2102 3.53975Z" fill="#06B470"/>
<path id="Vector (Stroke)_2" fill-rule="evenodd" clip-rule="evenodd" d="M11.75 3.9375C11.75 3.62684 12.0018 3.375 12.3125 3.375H16.8125C17.1232 3.375 17.375 3.62684 17.375 3.9375V8.4375C17.375 8.74816 17.1232 9 16.8125 9C16.5018 9 16.25 8.74816 16.25 8.4375V4.5H12.3125C12.0018 4.5 11.75 4.24816 11.75 3.9375Z" fill="#06B470"/>
</g>
</svg>
