<svg width="38" height="38" viewBox="0 0 38 38" fill="none" xmlns="http://www.w3.org/2000/svg">
<g id="Component 1">
<path id="Vector (Stroke)" fill-rule="evenodd" clip-rule="evenodd" d="M18.3777 3.73866C18.7594 3.50378 19.2408 3.50378 19.6225 3.73866L35.06 13.2387C35.5124 13.5171 35.7249 14.0622 35.5802 14.5734C35.4355 15.0846 34.9689 15.4375 34.4376 15.4375H3.5626C3.03132 15.4375 2.56468 15.0846 2.41999 14.5734C2.2753 14.0622 2.48776 13.5171 2.94024 13.2387L18.3777 3.73866ZM7.75809 13.0625H30.2421L19.0001 6.14434L7.75809 13.0625Z" fill="white"/>
<path id="Vector (Stroke)_2" fill-rule="evenodd" clip-rule="evenodd" d="M8.3125 13.0625C8.96834 13.0625 9.5 13.5942 9.5 14.25V26.125C9.5 26.7808 8.96834 27.3125 8.3125 27.3125C7.65666 27.3125 7.125 26.7808 7.125 26.125V14.25C7.125 13.5942 7.65666 13.0625 8.3125 13.0625Z" fill="white"/>
<path id="Vector (Stroke)_3" fill-rule="evenodd" clip-rule="evenodd" d="M15.4375 13.0625C16.0933 13.0625 16.625 13.5942 16.625 14.25V26.125C16.625 26.7808 16.0933 27.3125 15.4375 27.3125C14.7817 27.3125 14.25 26.7808 14.25 26.125V14.25C14.25 13.5942 14.7817 13.0625 15.4375 13.0625Z" fill="white"/>
<path id="Vector (Stroke)_4" fill-rule="evenodd" clip-rule="evenodd" d="M22.5625 13.0625C23.2183 13.0625 23.75 13.5942 23.75 14.25V26.125C23.75 26.7808 23.2183 27.3125 22.5625 27.3125C21.9067 27.3125 21.375 26.7808 21.375 26.125V14.25C21.375 13.5942 21.9067 13.0625 22.5625 13.0625Z" fill="white"/>
<path id="Vector (Stroke)_5" fill-rule="evenodd" clip-rule="evenodd" d="M29.6875 13.0625C30.3433 13.0625 30.875 13.5942 30.875 14.25V26.125C30.875 26.7808 30.3433 27.3125 29.6875 27.3125C29.0317 27.3125 28.5 26.7808 28.5 26.125V14.25C28.5 13.5942 29.0317 13.0625 29.6875 13.0625Z" fill="white"/>
<path id="Vector (Stroke)_6" fill-rule="evenodd" clip-rule="evenodd" d="M3.5625 26.125C3.5625 25.4692 4.09416 24.9375 4.75 24.9375H33.25C33.9058 24.9375 34.4375 25.4692 34.4375 26.125C34.4375 26.7808 33.9058 27.3125 33.25 27.3125H4.75C4.09416 27.3125 3.5625 26.7808 3.5625 26.125Z" fill="white"/>
<path id="Vector (Stroke)_7" fill-rule="evenodd" clip-rule="evenodd" d="M1.1875 30.875C1.1875 30.2192 1.71916 29.6875 2.375 29.6875H35.625C36.2808 29.6875 36.8125 30.2192 36.8125 30.875C36.8125 31.5308 36.2808 32.0625 35.625 32.0625H2.375C1.71916 32.0625 1.1875 31.5308 1.1875 30.875Z" fill="white"/>
</g>
</svg>
