<svg width="38" height="38" viewBox="0 0 38 38" fill="none" xmlns="http://www.w3.org/2000/svg">
<g id="Component 1">
<path id="Vector (Stroke)" fill-rule="evenodd" clip-rule="evenodd" d="M4.75 5.9375C5.40584 5.9375 5.9375 6.46916 5.9375 7.125V29.6875H33.25C33.9058 29.6875 34.4375 30.2192 34.4375 30.875C34.4375 31.5308 33.9058 32.0625 33.25 32.0625H4.75C4.09416 32.0625 3.5625 31.5308 3.5625 30.875V7.125C3.5625 6.46916 4.09416 5.9375 4.75 5.9375Z" fill="white"/>
<path id="Vector (Stroke)_2" fill-rule="evenodd" clip-rule="evenodd" d="M31.7147 8.66031C32.1784 9.12406 32.1784 9.87594 31.7147 10.3397L19.8397 22.2147C19.3759 22.6784 18.6241 22.6784 18.1603 22.2147L14.25 18.3044L5.58969 26.9647C5.12594 27.4284 4.37406 27.4284 3.91031 26.9647C3.44656 26.5009 3.44656 25.7491 3.91031 25.2853L13.4103 15.7853C13.8741 15.3216 14.6259 15.3216 15.0897 15.7853L19 19.6956L30.0353 8.66031C30.4991 8.19656 31.2509 8.19656 31.7147 8.66031Z" fill="white"/>
<path id="Vector (Stroke)_3" fill-rule="evenodd" clip-rule="evenodd" d="M23.75 9.5C23.75 8.84416 24.2817 8.3125 24.9375 8.3125H30.875C31.5308 8.3125 32.0625 8.84416 32.0625 9.5V15.4375C32.0625 16.0933 31.5308 16.625 30.875 16.625C30.2192 16.625 29.6875 16.0933 29.6875 15.4375V10.6875H24.9375C24.2817 10.6875 23.75 10.1558 23.75 9.5Z" fill="white"/>
</g>
</svg>
