<svg width="38" height="38" viewBox="0 0 38 38" fill="none" xmlns="http://www.w3.org/2000/svg">
<g id="Component 1">
<path id="Vector (Stroke)" fill-rule="evenodd" clip-rule="evenodd" d="M19 5.9375C14.4091 5.9375 10.6875 9.65913 10.6875 14.25C10.6875 18.8409 14.4091 22.5625 19 22.5625C23.5909 22.5625 27.3125 18.8409 27.3125 14.25C27.3125 9.65913 23.5909 5.9375 19 5.9375ZM8.3125 14.25C8.3125 8.34746 13.0975 3.5625 19 3.5625C24.9025 3.5625 29.6875 8.34746 29.6875 14.25C29.6875 20.1525 24.9025 24.9375 19 24.9375C13.0975 24.9375 8.3125 20.1525 8.3125 14.25Z" fill="white"/>
<path id="Vector (Stroke)_2" fill-rule="evenodd" clip-rule="evenodd" d="M19.0002 24.936C16.2901 24.936 13.6278 25.6495 11.2808 27.0046C8.93389 28.3598 6.98505 30.3089 5.63022 32.656C5.30235 33.224 4.57611 33.4187 4.00811 33.0908C3.4401 32.763 3.24543 32.0367 3.5733 31.4687C5.13656 28.7605 7.38523 26.5115 10.0932 24.9479C12.8012 23.3842 15.8732 22.561 19.0002 22.561C22.1272 22.561 25.1992 23.3842 27.9072 24.9479C30.6152 26.5115 32.8638 28.7605 34.4271 31.4687C34.755 32.0367 34.5603 32.763 33.9923 33.0908C33.4243 33.4187 32.698 33.224 32.3702 32.656C31.0153 30.3089 29.0665 28.3598 26.7196 27.0046C24.3726 25.6495 21.7103 24.936 19.0002 24.936Z" fill="white"/>
</g>
</svg>
