<svg width="38" height="38" viewBox="0 0 38 38" fill="none" xmlns="http://www.w3.org/2000/svg">
<g id="Component 1">
<path id="Vector (Stroke)" fill-rule="evenodd" clip-rule="evenodd" d="M8.3125 8.3125C7.99756 8.3125 7.69551 8.43761 7.47281 8.66031C7.25011 8.88301 7.125 9.18506 7.125 9.5C7.125 9.81494 7.25011 10.117 7.47281 10.3397C7.69551 10.5624 7.99756 10.6875 8.3125 10.6875H32.0625C32.6924 10.6875 33.2965 10.9377 33.7419 11.3831C34.1873 11.8285 34.4375 12.4326 34.4375 13.0625V29.6875C34.4375 30.3174 34.1873 30.9215 33.7419 31.3669C33.2965 31.8123 32.6924 32.0625 32.0625 32.0625H8.3125C7.36767 32.0625 6.46153 31.6872 5.79343 31.0191C5.12533 30.351 4.75 29.4448 4.75 28.5V9.5C4.75 8.55517 5.12533 7.64903 5.79343 6.98093C6.46153 6.31283 7.36767 5.9375 8.3125 5.9375H28.5C29.1558 5.9375 29.6875 6.46916 29.6875 7.125C29.6875 7.78084 29.1558 8.3125 28.5 8.3125H8.3125ZM7.125 12.8588V28.5C7.125 28.8149 7.25011 29.117 7.47281 29.3397C7.69551 29.5624 7.99756 29.6875 8.3125 29.6875H32.0625V13.0625H8.3125C7.90407 13.0625 7.50287 12.9924 7.125 12.8588Z" fill="white"/>
<path id="Vector" d="M26.7188 23.1562C27.7025 23.1562 28.5 22.3588 28.5 21.375C28.5 20.3912 27.7025 19.5938 26.7188 19.5938C25.735 19.5938 24.9375 20.3912 24.9375 21.375C24.9375 22.3588 25.735 23.1562 26.7188 23.1562Z" fill="white"/>
</g>
</svg>
