<svg width="32" height="32" viewBox="0 0 32 32" fill="none" xmlns="http://www.w3.org/2000/svg">
<g id="Component 1">
<path id="Vector (Stroke)" fill-rule="evenodd" clip-rule="evenodd" d="M17.8162 13.1516C18.2917 12.8706 18.9049 13.0283 19.1859 13.5037L26.8609 26.4912C27.1419 26.9667 26.9842 27.5799 26.5087 27.8609C26.0333 28.1419 25.4201 27.9842 25.1391 27.5087L17.4641 14.5212C17.1831 14.0458 17.3408 13.4326 17.8162 13.1516Z" fill="white"/>
<path id="Vector (Stroke)_2" fill-rule="evenodd" clip-rule="evenodd" d="M12.4911 4.13919C12.9665 3.85815 13.5798 4.01573 13.8608 4.49116L16.8608 9.56616C17.1419 10.0416 16.9843 10.6548 16.5088 10.9359C16.0334 11.2169 15.4202 11.0593 15.1391 10.5839L12.1391 5.50891C11.8581 5.03348 12.0157 4.42024 12.4911 4.13919Z" fill="white"/>
<path id="Vector (Stroke)_3" fill-rule="evenodd" clip-rule="evenodd" d="M7.69801 24.1402C8.1729 24.4221 8.32929 25.0357 8.04733 25.5106L6.85983 27.5106C6.57786 27.9855 5.96432 28.1419 5.48943 27.8599C5.01455 27.5779 4.85815 26.9644 5.14012 26.4895L6.32762 24.4895C6.60958 24.0146 7.22313 23.8582 7.69801 24.1402Z" fill="white"/>
<path id="Vector (Stroke)_4" fill-rule="evenodd" clip-rule="evenodd" d="M19.5086 4.139C19.9841 4.41987 20.1419 5.03305 19.8611 5.50858L10.4111 21.5086C10.1302 21.9841 9.51701 22.1419 9.04148 21.8611C8.56594 21.5802 8.40813 20.967 8.68899 20.4915L18.139 4.49149C18.4199 4.01595 19.033 3.85814 19.5086 4.139Z" fill="white"/>
<path id="Vector (Stroke)_5" fill-rule="evenodd" clip-rule="evenodd" d="M21.45 21C21.45 20.4477 21.8977 20 22.45 20H29C29.5523 20 30 20.4477 30 21C30 21.5523 29.5523 22 29 22H22.45C21.8977 22 21.45 21.5523 21.45 21Z" fill="white"/>
<path id="Vector (Stroke)_6" fill-rule="evenodd" clip-rule="evenodd" d="M2 21C2 20.4477 2.44772 20 3 20H17.8125C18.3648 20 18.8125 20.4477 18.8125 21C18.8125 21.5523 18.3648 22 17.8125 22H3C2.44772 22 2 21.5523 2 21Z" fill="white"/>
</g>
</svg>
