<svg width="32" height="32" viewBox="0 0 32 32" fill="none" xmlns="http://www.w3.org/2000/svg">
<g id="Component 2">
<path id="Vector (Stroke)" fill-rule="evenodd" clip-rule="evenodd" d="M4.99514 2.25268C5.30206 2.0802 5.64908 1.99179 6.00112 1.99639C6.34963 2.00094 6.69084 2.0965 6.99096 2.27349L27.9482 14.2758C28.2555 14.4428 28.5126 14.689 28.693 14.989C28.8765 15.2943 28.9735 15.6438 28.9735 16.0001C28.9735 16.3563 28.8765 16.7058 28.693 17.0111C28.5126 17.3111 28.2555 17.5573 27.9482 17.7243L6.991 29.7266C6.69088 29.9036 6.34965 29.9992 6.00112 30.0037C5.64907 30.0083 5.30206 29.9199 4.99514 29.7474C4.68822 29.5749 4.43226 29.3245 4.25315 29.0214C4.07403 28.7183 3.9781 28.3733 3.97505 28.0212L3.97498 28.0126L3.97501 3.97889C3.97806 3.62683 4.07403 3.28182 4.25315 2.97872C4.43226 2.67561 4.68822 2.42517 4.99514 2.25268ZM26.9345 16.0001L5.99054 4.00532L5.97501 3.99624V28.0039L5.99054 27.9948L26.9345 16.0001Z" fill="white"/>
<path id="Vector (Stroke)_2" fill-rule="evenodd" clip-rule="evenodd" d="M4.56792 2.56792C4.95844 2.17739 5.59161 2.17739 5.98213 2.56792L22.6946 19.2804C23.0852 19.6709 23.0852 20.3041 22.6946 20.6946C22.3041 21.0852 21.6709 21.0852 21.2804 20.6946L4.56792 3.98213C4.17739 3.59161 4.17739 2.95844 4.56792 2.56792Z" fill="white"/>
<path id="Vector (Stroke)_3" fill-rule="evenodd" clip-rule="evenodd" d="M22.6946 11.3053C23.0852 11.6959 23.0852 12.329 22.6946 12.7196L5.98213 29.4321C5.59161 29.8226 4.95844 29.8226 4.56792 29.4321C4.17739 29.0415 4.17739 28.4084 4.56792 28.0178L21.2804 11.3053C21.6709 10.9148 22.3041 10.9148 22.6946 11.3053Z" fill="white"/>
</g>
</svg>
