<svg width="28" height="28" viewBox="0 0 28 28" fill="none" xmlns="http://www.w3.org/2000/svg">
<g id="Component 1">
<path id="Vector (Stroke)" fill-rule="evenodd" clip-rule="evenodd" d="M8.3125 5.25C6.62113 5.25 5.25 6.62113 5.25 8.3125C5.25 10.0039 6.62113 11.375 8.3125 11.375C10.0039 11.375 11.375 10.0039 11.375 8.3125C11.375 6.62113 10.0039 5.25 8.3125 5.25ZM3.5 8.3125C3.5 5.65463 5.65463 3.5 8.3125 3.5C10.9704 3.5 13.125 5.65463 13.125 8.3125C13.125 10.9704 10.9704 13.125 8.3125 13.125C5.65463 13.125 3.5 10.9704 3.5 8.3125Z" fill="white"/>
<path id="Vector (Stroke)_2" fill-rule="evenodd" clip-rule="evenodd" d="M19.6875 5.25C17.9961 5.25 16.625 6.62113 16.625 8.3125C16.625 10.0039 17.9961 11.375 19.6875 11.375C21.3789 11.375 22.75 10.0039 22.75 8.3125C22.75 6.62113 21.3789 5.25 19.6875 5.25ZM14.875 8.3125C14.875 5.65463 17.0296 3.5 19.6875 3.5C22.3454 3.5 24.5 5.65463 24.5 8.3125C24.5 10.9704 22.3454 13.125 19.6875 13.125C17.0296 13.125 14.875 10.9704 14.875 8.3125Z" fill="white"/>
<path id="Vector (Stroke)_3" fill-rule="evenodd" clip-rule="evenodd" d="M8.3125 16.625C6.62113 16.625 5.25 17.9961 5.25 19.6875C5.25 21.3789 6.62113 22.75 8.3125 22.75C10.0039 22.75 11.375 21.3789 11.375 19.6875C11.375 17.9961 10.0039 16.625 8.3125 16.625ZM3.5 19.6875C3.5 17.0296 5.65463 14.875 8.3125 14.875C10.9704 14.875 13.125 17.0296 13.125 19.6875C13.125 22.3454 10.9704 24.5 8.3125 24.5C5.65463 24.5 3.5 22.3454 3.5 19.6875Z" fill="white"/>
<path id="Vector (Stroke)_4" fill-rule="evenodd" clip-rule="evenodd" d="M19.6875 16.625C17.9961 16.625 16.625 17.9961 16.625 19.6875C16.625 21.3789 17.9961 22.75 19.6875 22.75C21.3789 22.75 22.75 21.3789 22.75 19.6875C22.75 17.9961 21.3789 16.625 19.6875 16.625ZM14.875 19.6875C14.875 17.0296 17.0296 14.875 19.6875 14.875C22.3454 14.875 24.5 17.0296 24.5 19.6875C24.5 22.3454 22.3454 24.5 19.6875 24.5C17.0296 24.5 14.875 22.3454 14.875 19.6875Z" fill="white"/>
</g>
</svg>
