<svg width="150" height="24" viewBox="0 0 150 24" fill="none" xmlns="http://www.w3.org/2000/svg">
<g id="Group 259">
<g id="Group">
<path id="Vector" d="M0.5 7.47041C0.558594 7.26534 0.617188 7.06026 0.705078 6.88448C0.587891 7.06026 0.529297 7.26534 0.5 7.47041ZM7.73633 1.55245C8 1.52315 8.23437 1.52315 8.49805 1.52315C8.55664 1.52315 8.61523 1.52315 8.67383 1.52315C8.35156 1.49385 8.05859 1.49385 7.73633 1.55245ZM14.0059 3.57393C14.2109 3.77901 14.4453 3.95479 14.6211 4.18917C14.4453 3.95479 14.2402 3.74971 14.0059 3.57393Z" fill="#1B70F1"/>
<path id="Vector_2" d="M12.6582 12.2754L15.7344 14.0625C14.2402 16.6406 11.4863 18.252 8.49805 18.252C3.89844 18.252 0.148438 14.4727 0.148438 9.90235C0.148438 9.08203 0.265625 8.26172 0.5 7.5C0.558594 7.29492 0.617188 7.08985 0.705078 6.91406C0.910156 6.5625 1.20312 6.24023 1.64258 6.06445C1.84766 5.97656 2.05273 5.91797 2.25781 5.85938C2.43359 4.36523 3.42969 3.69141 4.74805 3.36914C4.95312 3.31055 5.1875 3.19336 5.33398 3.01758C6.06641 2.22656 6.88672 1.72851 7.73633 1.58203C8 1.55273 8.23438 1.55273 8.49805 1.55273C8.55664 1.55273 8.61523 1.55273 8.67383 1.55273C9.46484 1.64063 10.2852 1.99219 11.0469 2.66602C11.2227 2.8125 11.5156 2.90039 11.75 2.90039C12.6582 2.92969 13.4199 3.16406 14.0059 3.60352C14.2109 3.80859 14.4453 3.98437 14.6211 4.21875C15.0312 4.6875 15.4121 5.18555 15.7344 5.74219L15.3828 5.94727L13.625 6.97266C13.2734 6.94336 12.9219 6.85547 12.5703 6.82617C12.4238 6.79688 12.2773 6.79688 12.1309 6.82617C11.9551 6.6211 11.7793 6.44531 11.5742 6.26953C11.8672 6.21094 12.2188 6.21094 12.5703 6.24024C13.0977 6.29883 13.332 6.03515 13.0977 5.53711C12.9805 5.24414 12.7754 4.98047 12.5996 4.6582C13.2734 4.86328 13.332 4.89258 13.8301 5.85938C14.0059 6.18164 14.2402 6.44531 14.5625 6.24024C14.7676 6.12305 14.9141 5.71289 14.8555 5.44922C14.6797 4.42383 13.127 3.33984 12.1016 3.48633C11.9551 3.51562 11.7207 3.75 11.7207 3.89649C11.7207 5.27344 11.7207 5.27344 10.5195 5.53711L10.4902 5.56641C10.3145 5.47852 10.1094 5.39062 9.9043 5.33203C9.75781 4.30664 9.40625 4.13086 8.67383 3.25195C8.9668 3.33985 9.25977 3.42773 9.49414 3.60352C9.78711 3.83789 10.0215 4.18945 10.3145 4.45312C10.4902 4.59961 10.7832 4.62891 11.0176 4.7168C11.0762 4.45313 11.2227 4.18945 11.1641 3.95508C10.8711 2.95898 10.1094 2.40234 9.11328 2.19726C8.11719 1.99219 7.17969 2.10937 6.38867 2.8418C6.27148 2.92969 6.21289 3.07617 6.24219 3.04687C6.88672 3.45703 7.58984 3.75 8.08789 4.27735C8.32227 4.54102 8.49805 4.80469 8.61523 5.12695C8.58594 5.12695 8.52734 5.12695 8.46875 5.12695C8.29297 5.12695 8.08789 5.12696 7.91211 5.15625C7.70703 4.6875 7.35547 4.30664 6.91602 4.07226C5.89062 3.57422 4.19141 3.8086 3.3418 4.57031C2.87305 4.98047 2.66797 5.47852 2.87305 6.06445C2.93164 6.24023 3.22461 6.44531 3.42969 6.47461C4.04492 6.5625 4.39648 6.15234 4.74805 5.71289C4.80664 5.6543 4.80664 5.53711 4.83594 5.39062H3.78125C4.74805 4.54101 5.71484 4.6875 6.56445 5.53711C6.38867 5.625 6.21289 5.6836 6.06641 5.80078C5.77344 5.56641 5.53906 5.53711 5.27539 5.94727C5.09961 6.21094 4.89453 6.44531 4.66016 6.67969C4.01562 7.32422 3.19531 7.32422 2.49219 6.70898C2.375 6.5918 2.05273 6.53321 1.96484 6.6211C1.70117 6.79688 1.34961 7.08984 1.34961 7.32422C1.34961 7.64649 1.61328 8.02735 1.87695 8.23242C2.46289 8.64258 3.19531 8.58398 3.81055 8.26172C3.89844 8.23242 3.95703 8.17383 4.04492 8.14453C3.83984 8.61328 3.72266 9.11133 3.69336 9.63867C3.69336 9.75586 3.69336 9.87305 3.69336 9.99024C3.69336 12.6563 5.86133 14.7949 8.49805 14.7949C10.2852 14.6777 11.8379 13.7109 12.6582 12.2754Z" fill="#1B70F1"/>
</g>
<path id="Vector_3" d="M25.7207 6.12304L24.7246 10.1367C24.5488 10.0488 24.3437 9.96094 24.0508 9.87305C23.7578 9.81445 23.4648 9.78515 23.1719 9.78515C22.8496 9.78515 22.5273 9.84375 22.2344 9.96094C21.9414 10.0781 21.707 10.2539 21.502 10.459C21.2969 10.6641 21.1504 10.9277 21.0332 11.2207C20.916 11.5137 20.8574 11.8359 20.8574 12.1875V18.252H17.1953V6.15234H20.6523L20.7402 7.99805C20.8281 7.85156 20.9453 7.70508 21.0332 7.55859C21.4434 7.03125 21.9414 6.62109 22.498 6.32813C23.0547 6.03516 23.6699 5.88867 24.2852 5.88867C24.5488 5.88867 24.8125 5.91797 25.0469 5.94726C25.3105 6.00586 25.5156 6.06445 25.7207 6.12304Z" fill="#1B70F1"/>
<path id="Vector_4" d="M39.9316 6.15235L34.7754 18.2227L32.6953 23.4668H29.0918L31.4648 17.9004L26.0742 6.15235H30.1758L32.7246 12.2168C32.8711 12.5098 32.9883 12.832 33.1055 13.1836C33.1641 13.3008 33.1934 13.418 33.2227 13.5352C33.3398 13.2129 33.4277 12.8906 33.5742 12.5098L35.8008 6.12305H39.9316V6.15235Z" fill="#1B70F1"/>
<path id="Vector_5" d="M53.584 8.93555C53.1152 7.99805 52.4707 7.26563 51.6797 6.73828C50.8887 6.21094 49.9512 5.91797 48.9258 5.91797C48.2227 5.91797 47.5781 6.03516 46.9336 6.29883C46.2891 6.5625 45.791 6.88476 45.3809 7.29492C45.3223 7.35352 45.2637 7.41211 45.2344 7.4707L45.1758 6.15234H41.7188V23.2324H45.3809V16.9922C45.8203 17.4316 46.3184 17.7832 46.9629 18.0176C47.5781 18.2813 48.2227 18.3984 48.9258 18.3984C49.9805 18.3984 50.918 18.1348 51.709 17.6074C52.5293 17.0801 53.1445 16.3477 53.6133 15.3809C54.082 14.4434 54.3164 13.3594 54.3164 12.1289C54.2578 10.957 54.0234 9.87305 53.584 8.93555ZM50.3613 13.8867C50.127 14.3555 49.8047 14.707 49.3945 15C48.9844 15.2637 48.5156 15.3809 47.959 15.3809C47.4023 15.3809 46.9043 15.2637 46.4941 15C46.084 14.7363 45.7617 14.3848 45.5273 13.8867C45.293 13.3887 45.1758 12.8613 45.1758 12.1875C45.1758 11.543 45.293 10.9863 45.5273 10.5176C45.7617 10.0488 46.084 9.66797 46.4941 9.4043C46.9043 9.14063 47.4023 9.02344 47.959 9.02344C48.5156 9.02344 49.0137 9.14063 49.3945 9.4043C49.8047 9.66797 50.0977 10.0488 50.332 10.5176C50.5664 10.9863 50.6836 11.543 50.6836 12.1875C50.7129 12.832 50.5957 13.3887 50.3613 13.8867Z" fill="#1B70F1"/>
<path id="Vector_6" d="M63.6621 6.15234V6.47461C63.4277 6.76758 63.2227 7.06055 63.0469 7.38281C62.666 7.99805 62.373 8.64258 62.168 9.3457H61.3184V18.252H57.6855V9.3457H55.5469V6.15234H57.6855V3.10547H61.3184V6.15234H63.6621Z" fill="#1B70F1"/>
<path id="Vector_7" d="M71.3066 18.457C70.0469 18.457 68.9336 18.1934 67.9375 17.6367C66.9707 17.0801 66.1797 16.3477 65.623 15.4102C65.0664 14.4727 64.7734 13.3887 64.7734 12.1875C64.7734 10.9863 65.0664 9.90235 65.623 8.96485C66.1797 8.02735 66.9707 7.29492 67.9375 6.73828C68.9043 6.18164 70.0469 5.91797 71.3066 5.91797C72.5664 5.91797 73.6797 6.18164 74.6758 6.73828C75.6426 7.29492 76.4336 8.02735 76.9902 8.96485C77.5469 9.90235 77.8398 10.9863 77.8398 12.1875C77.8398 13.3887 77.5469 14.4727 76.9902 15.4102C76.4336 16.3477 75.6719 17.0801 74.6758 17.6367C73.6797 18.1934 72.5664 18.457 71.3066 18.457ZM71.3066 15.3223C71.8633 15.3223 72.332 15.1758 72.7715 14.9121C73.1816 14.6484 73.5332 14.2676 73.7676 13.7988C74.002 13.3301 74.1191 12.8027 74.1191 12.1875C74.1484 11.5723 74.0312 11.0449 73.7676 10.5469C73.5332 10.0781 73.1816 9.69727 72.7715 9.43359C72.3613 9.16992 71.8633 9.02344 71.3066 9.02344C70.75 9.02344 70.2812 9.16992 69.8418 9.43359C69.4023 9.69727 69.0801 10.0781 68.8164 10.5469C68.582 11.0156 68.4648 11.5723 68.4648 12.1875C68.4355 12.8027 68.5527 13.3301 68.8164 13.7988C69.0508 14.2676 69.4023 14.6484 69.8418 14.9121C70.2812 15.1758 70.75 15.3223 71.3066 15.3223Z" fill="#1B70F1"/>
<path id="Vector_8" d="M91.291 11.543C90.998 10.9863 90.5879 10.5176 90.0898 10.1367C89.7383 9.87305 89.3574 9.69727 88.9473 9.55078C89.4746 9.31641 89.9141 8.96485 90.2363 8.52539C90.6758 7.91016 90.9102 7.14844 90.9102 6.24024C90.9102 5.41992 90.7344 4.7168 90.3242 4.13086C89.9434 3.54493 89.3574 3.10547 88.5957 2.7832C87.834 2.46094 86.9258 2.31445 85.8125 2.31445H78.7812V6.26953C79.0742 6.62109 79.3379 7.00195 79.5723 7.41211C80.4219 8.81836 80.8613 10.4297 80.8613 12.1875C80.8613 13.9453 80.4512 15.5566 79.6016 16.9629C79.3672 17.373 79.1035 17.7539 78.7812 18.1055V18.2227H86.0469C86.8672 18.2227 87.6582 18.1348 88.332 17.9297C89.0352 17.7246 89.6211 17.4316 90.1484 17.0215C90.6758 16.6113 91.0566 16.1133 91.3203 15.498C91.584 14.9121 91.7305 14.209 91.7305 13.3887C91.7305 12.7148 91.584 12.0996 91.291 11.543ZM82.4141 5.53711H85.1094C85.7832 5.53711 86.2813 5.68359 86.6035 5.97656C86.9258 6.26953 87.1016 6.65039 87.1016 7.11914C87.1016 7.44141 87.043 7.73437 86.8965 7.96875C86.75 8.20312 86.5449 8.37891 86.252 8.52539C85.959 8.64258 85.6367 8.70117 85.2266 8.70117H82.3848V5.53711H82.4141ZM87.6582 14.209C87.4824 14.4727 87.2773 14.6777 86.9551 14.7949C86.6621 14.9414 86.2813 15 85.8711 15H82.3848V11.5723H85.7539C86.1934 11.5723 86.5742 11.6309 86.8965 11.748C87.2188 11.8652 87.4531 12.0703 87.6289 12.3047C87.8047 12.5391 87.8926 12.832 87.8926 13.1836C87.9219 13.623 87.834 13.9453 87.6582 14.209Z" fill="white"/>
<path id="Vector_9" d="M102.861 6.12305L101.865 10.1367C101.689 10.0488 101.484 9.96094 101.191 9.87305C100.898 9.78516 100.635 9.78516 100.312 9.78516C99.9902 9.78516 99.668 9.84375 99.375 9.96094C99.082 10.0781 98.8477 10.2539 98.6426 10.459C98.4375 10.6641 98.291 10.9277 98.1738 11.2207C98.0566 11.5137 97.998 11.8359 97.998 12.1875V18.252H94.3359V6.15234H97.793L97.8809 7.99805C97.9688 7.85156 98.0566 7.70508 98.1738 7.58789C98.584 7.06055 99.082 6.65039 99.6387 6.35742C100.195 6.06445 100.811 5.91797 101.426 5.91797C101.689 5.91797 101.953 5.94726 102.187 5.97656C102.422 6.00586 102.656 6.06445 102.861 6.12305Z" fill="white"/>
<path id="Vector_10" d="M112.354 6.15234V7.61719C112.119 7.32422 111.885 7.06054 111.592 6.85547C111.24 6.5625 110.801 6.32812 110.332 6.15234C109.863 5.97656 109.336 5.88867 108.75 5.88867C107.695 5.88867 106.758 6.15234 105.938 6.67969C105.117 7.20703 104.473 7.96875 104.004 8.90625C103.535 9.84375 103.301 10.9277 103.301 12.1582C103.301 13.3594 103.535 14.4434 104.004 15.3809C104.473 16.3184 105.117 17.0801 105.908 17.6074C106.699 18.1348 107.607 18.3984 108.633 18.3984C109.189 18.3984 109.688 18.3105 110.186 18.1641C110.684 17.9883 111.123 17.7832 111.504 17.4902C111.797 17.2852 112.061 17.0215 112.266 16.7871V18.2227H115.957V6.15234H112.354ZM112.061 13.8867C111.826 14.3555 111.504 14.7363 111.094 15C110.684 15.2637 110.186 15.3809 109.629 15.3809C109.072 15.3809 108.604 15.2637 108.223 15C107.812 14.7363 107.49 14.3848 107.285 13.8867C107.051 13.418 106.934 12.8613 106.934 12.1875C106.934 11.543 107.051 10.9863 107.285 10.4883C107.52 10.0195 107.812 9.63867 108.223 9.375C108.604 9.11133 109.102 8.99414 109.629 8.99414C110.186 8.99414 110.684 9.11133 111.094 9.375C111.504 9.63867 111.826 10.0195 112.061 10.4883C112.295 10.957 112.412 11.543 112.412 12.1875C112.412 12.832 112.295 13.3887 112.061 13.8867Z" fill="white"/>
<path id="Vector_11" d="M121.201 3.7793C120.527 3.7793 119.971 3.60352 119.59 3.28125C119.209 2.95898 119.004 2.49023 119.004 1.875C119.004 1.31836 119.209 0.878907 119.59 0.527345C119.971 0.175782 120.527 0 121.172 0C121.846 0 122.373 0.17578 122.754 0.498046C123.135 0.820312 123.311 1.28906 123.311 1.875C123.311 2.43164 123.105 2.90039 122.725 3.25196C122.344 3.60352 121.875 3.7793 121.201 3.7793ZM119.385 18.252V6.15235H123.047V18.2227H119.385V18.252Z" fill="white"/>
<path id="Vector_12" d="M137.844 10.8105V18.2227H134.182V11.1328C134.182 10.6348 134.123 10.2539 133.977 9.93164C133.83 9.60937 133.625 9.375 133.361 9.22851C133.068 9.08203 132.746 8.99414 132.336 9.02344C132.014 9.02344 131.721 9.08203 131.457 9.16992C131.193 9.25781 130.959 9.4043 130.754 9.60938C130.549 9.78516 130.402 10.0195 130.285 10.2539C130.168 10.4883 130.109 10.752 130.109 11.0449V18.2812H126.477V6.15234H129.934L129.992 7.64648C130.051 7.55859 130.139 7.4707 130.197 7.38281C130.637 6.94336 131.164 6.5625 131.75 6.29883C132.365 6.03515 132.98 5.88867 133.654 5.88867C134.563 5.88867 135.324 6.06445 135.939 6.44531C136.555 6.82617 137.023 7.38281 137.346 8.11523C137.697 8.84765 137.844 9.75586 137.844 10.8105Z" fill="white"/>
<path id="Vector_13" d="M144.961 18.457C143.789 18.457 142.734 18.2813 141.826 17.9004C140.918 17.5195 140.215 17.0215 139.688 16.377L141.885 14.4727C142.354 14.9414 142.881 15.293 143.467 15.498C144.053 15.7324 144.609 15.8203 145.137 15.8203C145.342 15.8203 145.547 15.791 145.693 15.7617C145.869 15.7031 145.986 15.6445 146.104 15.5566C146.221 15.4688 146.309 15.3809 146.367 15.2637C146.426 15.1465 146.455 15.0293 146.455 14.8535C146.455 14.5606 146.309 14.3262 146.045 14.1504C145.898 14.0625 145.693 13.9746 145.371 13.8867C145.049 13.7695 144.639 13.6523 144.141 13.5352C143.438 13.3594 142.822 13.125 142.295 12.8906C141.768 12.627 141.328 12.334 141.006 12.0117C140.713 11.6895 140.479 11.3379 140.303 10.957C140.127 10.5762 140.039 10.1367 140.039 9.63867C140.039 9.08203 140.186 8.55469 140.449 8.11523C140.713 7.64648 141.064 7.26562 141.504 6.94336C141.943 6.62109 142.471 6.35742 143.057 6.18164C143.643 6.00586 144.258 5.91797 144.873 5.91797C145.547 5.91797 146.191 6.00586 146.777 6.15234C147.393 6.29883 147.949 6.50391 148.477 6.79688C149.004 7.06055 149.473 7.38281 149.883 7.76367L147.979 9.90235C147.715 9.63867 147.393 9.4043 147.07 9.19922C146.719 8.99414 146.367 8.81836 146.016 8.70117C145.664 8.58398 145.313 8.52539 145.02 8.52539C144.785 8.52539 144.58 8.55469 144.404 8.58399C144.229 8.61328 144.082 8.67187 143.965 8.75976C143.848 8.84766 143.76 8.93555 143.701 9.05273C143.643 9.16992 143.613 9.28711 143.613 9.46289C143.613 9.60938 143.643 9.75586 143.73 9.90235C143.818 10.0488 143.936 10.166 144.082 10.2539C144.229 10.3418 144.463 10.459 144.814 10.5469C145.137 10.6641 145.605 10.8105 146.191 10.957C146.895 11.1621 147.51 11.3672 148.037 11.6309C148.564 11.8652 148.975 12.1582 149.268 12.5098C149.502 12.7734 149.678 13.0664 149.824 13.418C149.941 13.7695 150 14.1211 150 14.5313C150 15.293 149.795 15.9961 149.355 16.582C148.916 17.168 148.33 17.666 147.568 17.9883C146.807 18.3105 145.928 18.457 144.961 18.457Z" fill="white"/>
</g>
</svg>
