<svg width="48" height="48" viewBox="0 0 48 48" fill="none" xmlns="http://www.w3.org/2000/svg">
<g id="Page-1">
<g id="Artboard">
<g id="KMD">
<path id="Fill-118" fill-rule="evenodd" clip-rule="evenodd" d="M40.7862 7.15795L34.6572 13.2857C34.491 13.1193 34.2907 12.9841 34.0688 12.8926L24.5937 8.96786C24.1488 8.78446 23.6495 8.78446 23.2046 8.96786L13.7295 12.8926C13.5076 12.9841 13.3078 13.1193 13.1411 13.2857L7.01212 7.15795C7.27504 6.89622 7.58716 6.68535 7.93701 6.54064L22.8094 0.380161C23.5074 0.0907277 24.2912 0.0907277 24.9894 0.380161L39.8613 6.54064C40.2112 6.68535 40.5233 6.89622 40.7862 7.15795Z" fill="#FCB000"/>
<path id="Fill-120" fill-rule="evenodd" clip-rule="evenodd" d="M47.5628 25.135L41.4035 40.006C41.259 40.3556 41.0479 40.6679 40.7862 40.9309C40.5233 41.1926 40.2112 41.4035 39.8613 41.5482L24.9894 47.7086C24.2912 47.9978 23.5074 47.9978 22.8094 47.7086L7.937 41.5482C7.58739 41.4035 7.27503 41.1926 7.01211 40.9309C6.75062 40.6679 6.53951 40.3556 6.3948 40.006L0.235511 25.135C-0.0536828 24.437 -0.0536828 23.6518 0.235511 22.9538L6.3948 8.08285C6.53951 7.7342 6.75062 7.42088 7.01211 7.15796L13.1411 13.2857C13.3078 13.1195 13.5079 12.9843 13.7295 12.8926L23.2046 8.96787C23.6495 8.78447 24.1488 8.78447 24.5937 8.96787L34.0688 12.8926C34.2907 12.9843 34.491 13.1195 34.6572 13.2857L40.7862 7.15796C41.0479 7.42088 41.259 7.7342 41.4035 8.08285L47.5628 22.9538C47.8522 23.6518 47.8522 24.437 47.5628 25.135Z" fill="#3D6E6E"/>
<path id="Fill-122" fill-rule="evenodd" clip-rule="evenodd" d="M38.9751 24.7393L35.0503 34.2132C34.9589 34.4351 34.8249 34.6352 34.6573 34.8017C34.4911 34.9693 34.2907 35.103 34.0688 35.1959L24.5937 39.1207C24.1488 39.3041 23.6495 39.3041 23.2046 39.1207L13.7295 35.1959C13.5077 35.103 13.3078 34.9693 13.1411 34.8017C12.9737 34.6352 12.84 34.4351 12.7483 34.2132L8.82324 24.7393C8.63888 24.2944 8.63888 23.7941 8.82324 23.349L12.7483 13.8751C12.84 13.652 12.9737 13.4531 13.1411 13.2857C13.3078 13.1193 13.5077 12.9841 13.7295 12.8924L23.2046 8.96763C23.6495 8.78423 24.1488 8.78423 24.5937 8.96763L34.0688 12.8924C34.2907 12.9841 34.4911 13.1193 34.6573 13.2857C34.8249 13.4531 34.9589 13.652 35.0503 13.8751L38.9751 23.349C39.1595 23.7941 39.1595 24.2944 38.9751 24.7393Z" fill="white"/>
<path id="Fill-124" fill-rule="evenodd" clip-rule="evenodd" d="M31.0208 16.2345L24.3858 13.4861C24.0742 13.3572 23.7241 13.3572 23.413 13.4861L16.7775 16.2345C16.4661 16.3635 16.2187 16.6111 16.0897 16.9225L13.3413 23.5578C13.2121 23.8692 13.2121 24.2193 13.3413 24.5307L16.0897 31.1659C16.2187 31.4773 16.4661 31.7249 16.7775 31.8539L23.413 34.6023C23.7241 34.7313 24.0742 34.7313 24.3858 34.6023L31.0208 31.8539C31.3325 31.7249 31.5799 31.4773 31.7088 31.1659L34.4572 24.5307C34.5864 24.2193 34.5864 23.8692 34.4572 23.5578L31.7088 16.9225C31.5799 16.6111 31.3325 16.3635 31.0208 16.2345Z" fill="#3F7070"/>
</g>
</g>
</g>
</svg>
