<svg width="48" height="48" viewBox="0 0 48 48" fill="none" xmlns="http://www.w3.org/2000/svg">
<g id="Page-1">
<g id="Artboard">
<g id="ETP">
<path id="Fill-853" fill-rule="evenodd" clip-rule="evenodd" d="M1.52024 21.4854C1.52024 21.9425 1.51929 22.3999 1.52024 22.8572C1.52789 26.0745 1.52836 29.2917 1.5501 32.5087C1.55392 33.0972 1.35427 33.3724 0.76108 33.3594C0.150931 33.3463 0.0945729 32.9658 0.0955281 32.4722C0.103409 28.2692 0.112245 24.0656 0.0917072 19.8625C0.0886028 19.2407 0.308065 19.0869 0.878334 19.034C1.78198 18.9503 2.27201 19.2828 2.68084 20.1357C3.75833 22.3829 4.94353 24.5759 6.1003 26.7824C6.18221 26.9387 6.37039 27.0537 6.53421 27.1337C6.56932 27.1509 6.73768 26.9463 6.80263 26.8205C7.78054 24.9286 8.75129 23.0327 9.72466 21.1383C9.8892 20.8176 10.1027 20.5158 10.2173 20.1776C10.5347 19.2427 11.1451 18.9229 12.0802 19.044C12.5103 19.0999 12.7279 19.2144 12.7272 19.6858C12.7214 24.0191 12.7219 28.3521 12.725 32.6849C12.7255 33.1807 12.518 33.3545 12.0294 33.3535C11.5186 33.3522 11.2962 33.1949 11.301 32.645C11.3309 29.2213 11.345 25.7973 11.3583 22.373C11.3598 22.0548 11.3208 21.7367 11.2865 21.1959C11.0355 21.493 10.907 21.5989 10.8363 21.736C9.60072 24.134 8.37732 26.5385 7.13911 28.9353C6.71929 29.7478 6.20204 29.7653 5.78126 28.9572C4.57099 26.6337 3.39296 24.2921 2.18914 21.9652C2.07284 21.7407 1.86389 21.5674 1.69792 21.3702C1.63869 21.4086 1.57947 21.447 1.52024 21.4854Z" fill="#00689F"/>
<path id="Fill-855" fill-rule="evenodd" clip-rule="evenodd" d="M11.1464 14.027C8.68289 14.1614 6.71513 11.8498 6.75763 9.42198C6.79704 7.17484 8.61746 4.9442 11.1849 5.00081C13.6878 5.0562 15.6149 7.00647 15.5777 9.54383C15.5388 12.1784 13.4824 14.1654 11.1464 14.027Z" fill="#00659B"/>
<path id="Fill-857" fill-rule="evenodd" clip-rule="evenodd" d="M24.7362 -0.00338822C27.0937 0.00547332 28.9499 1.96929 28.9337 4.43723C28.9179 6.83673 27.0266 8.74861 24.6739 8.74295C22.3699 8.73778 20.4451 6.74837 20.4468 4.37372C20.4485 1.95993 22.3811 -0.0122498 24.7362 -0.00338822Z" fill="#0099CC"/>
<path id="Fill-859" fill-rule="evenodd" clip-rule="evenodd" d="M41.1262 9.57106C41.1652 12.0796 39.1945 13.829 36.9748 13.8726C34.6355 13.9184 32.7155 11.8783 32.7262 9.46251C32.7365 7.14398 34.6166 5.18829 36.8404 5.18312C39.3409 5.17697 41.1195 6.99826 41.1262 9.57106Z" fill="#0097FB"/>
<path id="Fill-861" fill-rule="evenodd" clip-rule="evenodd" d="M43.7361 14.0498C45.9696 14.0606 47.9355 16.0417 47.8502 18.3213C47.7626 20.6544 46.2192 22.5726 43.6532 22.5549C41.3519 22.5387 39.5185 20.6344 39.5856 18.2701C39.6544 15.8455 41.3951 14.1013 43.7361 14.0498Z" fill="#00CAFF"/>
<path id="Fill-863" fill-rule="evenodd" clip-rule="evenodd" d="M43.7329 26.6472C46.0907 26.6275 47.8022 28.4832 47.7556 30.8271C47.7093 33.1503 46.0797 34.9731 43.6606 34.9536C41.4858 34.9362 39.6954 33.1796 39.6854 30.8677C39.6749 28.3843 41.4428 26.5696 43.7329 26.6472Z" fill="#FFCB00"/>
<path id="Fill-865" fill-rule="evenodd" clip-rule="evenodd" d="M35.9652 20.5792C34.807 20.3968 33.7099 20.1251 32.6057 20.0896C31.9955 20.0699 31.2954 20.3205 30.7719 20.6676C29.4515 21.5431 29.4458 23.312 30.7688 24.2329C31.8026 24.9526 32.9503 25.4969 34.0335 26.1433C34.998 26.7188 35.8587 27.3923 36.342 28.5012C37.0893 30.2151 36.1696 32.4847 34.4614 33.123C32.5512 33.8368 30.6604 33.6935 28.7666 33.0954C28.2986 32.9475 27.96 31.8129 28.2852 31.4385C28.37 31.3413 28.678 31.3263 28.8008 31.407C30.0065 32.2016 31.3355 32.3235 32.7122 32.2297C33.7574 32.1588 34.673 31.5395 34.8999 30.7414C35.2388 29.5486 34.9498 28.5876 33.9038 27.918C32.6081 27.0885 31.2242 26.4039 29.9392 25.5589C27.5865 24.0121 27.9217 20.9962 29.5623 19.8319C31.4315 18.5046 33.5256 18.4288 35.6244 19.1508C36.3745 19.4087 35.9229 20.1413 35.9652 20.5792Z" fill="#00689F"/>
<path id="Fill-867" fill-rule="evenodd" clip-rule="evenodd" d="M15.1016 19.2722C16.2011 18.8078 16.619 18.9372 16.9657 19.9314C17.814 22.3637 18.6231 24.8105 19.4417 27.2535C19.8431 28.4516 20.2266 29.6562 20.629 30.8538C20.682 31.0116 20.8 31.1467 21.0102 31.495C21.281 30.7255 21.4937 30.1284 21.7017 29.529C22.7238 26.5865 23.7459 23.6439 24.7644 20.7002C24.8908 20.3346 24.945 19.9312 25.1293 19.6031C25.2611 19.3682 25.5324 19.1376 25.7822 19.0734C26.0461 19.0057 26.3582 19.1376 26.6493 19.1822C26.6068 19.4743 26.6102 19.7835 26.5146 20.056C25.6631 22.4846 24.7931 24.9062 23.93 27.3306C23.2998 29.1009 22.6813 30.8759 22.0358 32.6404C21.8832 33.0571 21.6583 33.432 21.0976 33.35C20.5739 33.2735 20.0666 33.4229 19.803 32.6318C18.6653 29.2149 17.4403 25.8288 16.2424 22.4334C15.8691 21.3754 15.4813 20.3231 15.1016 19.2722Z" fill="#00689F"/>
<path id="Fill-869" fill-rule="evenodd" clip-rule="evenodd" d="M38.3836 36.3929C40.4058 36.3092 41.8506 37.9382 41.8716 39.8548C41.8945 41.9476 40.4321 43.4767 38.4505 43.4801C36.3936 43.4838 34.9758 41.9601 34.919 39.8784C34.8753 38.2636 36.4046 36.1888 38.3836 36.3929Z" fill="#FF9700"/>
<path id="Fill-871" fill-rule="evenodd" clip-rule="evenodd" d="M24.9505 44.4224C24.9498 42.4142 26.3521 41.0291 28.3638 41.0503C30.1247 41.069 31.5757 42.5506 31.5626 44.3552C31.5475 46.4475 30.1381 47.7917 28.3528 47.8429C26.4235 47.898 24.8958 46.4285 24.9505 44.4224Z" fill="#FD6800"/>
<path id="Fill-873" fill-rule="evenodd" clip-rule="evenodd" d="M18.9087 47.5899C17.4799 47.7698 15.8092 46.0713 15.8159 44.4635C15.823 42.7652 17.2604 41.2332 18.9055 41.2169C20.6044 41.2002 22.0045 42.6835 21.9924 44.4524C21.9802 46.1693 20.5829 47.5908 18.9087 47.5899Z" fill="#FF0000"/>
<path id="Fill-875" fill-rule="evenodd" clip-rule="evenodd" d="M8.54763 39.9561C8.47289 38.1927 9.77151 37.2021 11.2311 37.2046C12.8426 37.2078 13.8336 38.5355 13.8754 39.9965C13.9162 41.4382 12.5648 42.7216 11.1224 42.6872C9.62345 42.651 8.53856 41.5002 8.54763 39.9561Z" fill="#F02000"/>
</g>
</g>
</g>
</svg>
