<svg width="48" height="48" viewBox="0 0 48 48" fill="none" xmlns="http://www.w3.org/2000/svg">
<g id="Page-1">
<g id="Artboard">
<g id="DGD">
<path id="Fill-208" fill-rule="evenodd" clip-rule="evenodd" d="M47.9075 23.9609C47.9075 37.1499 37.2159 47.8415 24.0269 47.8415C10.8379 47.8415 0.146286 37.1499 0.146286 23.9609C0.146286 10.7719 10.8379 0.0803223 24.0269 0.0803223C37.2159 0.0803223 47.9075 10.7719 47.9075 23.9609Z" fill="black"/>
<path id="Fill-210" fill-rule="evenodd" clip-rule="evenodd" d="M7.28145 20.8299V17.2624C7.28145 16.9889 7.50306 16.7671 7.77649 16.7671H18.3597C18.6331 16.7671 18.8549 16.9889 18.8549 17.2624V20.8299C18.8549 21.1036 18.6331 21.3252 18.3597 21.3252H7.77649C7.50306 21.3252 7.28145 21.1036 7.28145 20.8299Z" fill="#EFCA0C"/>
<path id="Fill-212" fill-rule="evenodd" clip-rule="evenodd" d="M10.9398 28.2938V26.391C10.9398 26.1892 11.1034 26.0258 11.3049 26.0258H19.4141C19.6156 26.0258 19.7792 26.1892 19.7792 26.391V28.2938C19.7792 28.4956 19.6156 28.6587 19.4141 28.6587H11.3049C11.1034 28.6587 10.9398 28.4956 10.9398 28.2938ZM19.7792 17.0962V22.0385C19.7792 22.22 19.6316 22.3676 19.4501 22.3676H10.9398H7.61036C7.42863 22.3676 7.28152 22.5147 7.28152 22.6964V26.0258V28.6587V31.9883C7.28152 32.1698 7.42863 32.3174 7.61036 32.3174H10.9398H19.7792H22.8314H23.1086C23.2901 32.3174 23.4375 32.1698 23.4375 31.9883V17.0962C23.4375 16.9144 23.2901 16.7671 23.1086 16.7671H20.108C19.9263 16.7671 19.7792 16.9144 19.7792 17.0962Z" fill="#FDFDFD"/>
<path id="Fill-214" fill-rule="evenodd" clip-rule="evenodd" d="M28.2753 28.3083V20.7757C28.2753 20.5823 28.4322 20.4254 28.6256 20.4254H40.4226C40.6161 20.4254 40.7729 20.2687 40.7729 20.075V17.1174C40.7729 16.9237 40.6161 16.7671 40.4226 16.7671H28.2753H24.9671C24.7737 16.7671 24.617 16.9237 24.617 17.1174V20.4254V28.6587V31.9666C24.617 32.1603 24.7737 32.3172 24.9671 32.3172H28.2753H37.1147H40.1669H40.4226C40.6161 32.3172 40.7729 32.1603 40.7729 31.9666V26.0256V22.7177C40.7729 22.524 40.6161 22.3673 40.4226 22.3673H37.1147H31.2214C31.0277 22.3673 30.8711 22.524 30.8711 22.7177V25.6755C30.8711 25.8689 31.0277 26.0256 31.2214 26.0256H36.7641C36.9575 26.0256 37.1147 26.1827 37.1147 26.3759V28.3083C37.1147 28.502 36.9575 28.6587 36.7641 28.6587H28.6256C28.4322 28.6587 28.2753 28.502 28.2753 28.3083Z" fill="#FDFDFD"/>
</g>
</g>
</g>
</svg>
