<svg width="48" height="48" viewBox="0 0 48 48" fill="none" xmlns="http://www.w3.org/2000/svg">
<g id="Page-1">
<g id="Artboard">
<g id="ETHOS">
<path id="Fill-818" fill-rule="evenodd" clip-rule="evenodd" d="M24.1098 4.64217C22.5165 6.38937 21.3544 8.57241 20.8264 11.0519C20.7295 11.5062 20.6581 11.9603 20.6072 12.4167C19.7843 8.77401 16.1872 6.45681 12.5396 7.23753C10.7596 7.61985 9.23552 8.67657 8.24614 10.2107C7.25701 11.7447 6.92053 13.5755 7.30095 15.3644C7.83349 17.8715 9.67134 19.76 11.9493 20.4762H11.9517H11.9538C13.033 20.8122 14.2067 20.8839 15.3872 20.6315C17.2549 20.228 19.0925 21.4263 19.4915 23.3031C19.8925 25.1802 18.7006 27.0272 16.8329 27.4302C16.7983 27.4371 16.7615 27.4467 16.7269 27.4511C16.7245 27.4535 16.7221 27.4535 16.7199 27.4535C15.7953 27.6435 14.8706 27.7362 13.9601 27.7362C13.3095 27.7362 12.6664 27.6899 12.0346 27.5972C9.27922 27.2031 6.72447 25.9705 4.70226 24.1167C2.65952 22.2443 1.15599 19.737 0.535814 16.8171C-0.229559 13.2138 0.446023 9.52473 2.44029 6.43113C4.4348 3.33753 7.50847 1.20801 11.0961 0.438572C16.0329 -0.620308 20.9279 1.14081 24.1098 4.64217Z" fill="#00FFB8"/>
<path id="Fill-819" fill-rule="evenodd" clip-rule="evenodd" d="M47.6815 16.8172C47.0866 19.6187 45.6755 22.1099 43.6325 24.0215C41.6266 22.1399 39.0833 20.8794 36.3327 20.4527C38.5785 19.7253 40.3908 17.8461 40.9188 15.3642C41.7025 11.6725 39.3531 8.02526 35.6777 7.23758C32.0323 6.45662 28.433 8.77382 27.6122 12.4141C27.6053 12.4444 27.5984 12.4722 27.5915 12.5022C27.4162 13.3249 27.3909 14.1568 27.5177 14.9771C27.709 16.2285 27.2111 17.4289 26.3072 18.1842C26.2288 18.2469 26.1481 18.3095 26.065 18.3673C25.9545 18.4439 25.8391 18.5157 25.7192 18.5783C25.5117 18.6894 25.2927 18.7799 25.062 18.8447C25.0229 18.8562 24.9813 18.868 24.9422 18.8795C24.9006 18.8889 24.8569 18.898 24.8154 18.9073C24.753 18.9213 24.6909 18.9328 24.6265 18.9421C24.5777 18.9491 24.5295 18.9561 24.481 18.9606C24.444 18.9652 24.4072 18.9676 24.3702 18.9721C24.3265 18.9743 24.285 18.9767 24.2413 18.9791C24.1512 18.9837 24.0638 18.9837 23.976 18.9791C23.8955 18.9767 23.8169 18.97 23.7362 18.9606C23.6901 18.9561 23.6416 18.9491 23.5934 18.9421H23.5886C23.5356 18.9349 23.485 18.9258 23.4341 18.9141C23.432 18.9141 23.4296 18.9141 23.425 18.9121C23.4019 18.9073 23.3765 18.9025 23.3534 18.8956C23.2982 18.8841 23.2428 18.8704 23.1898 18.8541C21.9124 18.5111 20.8956 17.4359 20.6811 16.0362C20.4968 14.8333 20.4715 13.6218 20.6074 12.4165C20.658 11.9603 20.7296 11.506 20.8263 11.0519C21.3543 8.57222 22.5166 6.38942 24.1097 4.64222C27.2918 1.14302 32.1868 -0.620262 37.1234 0.438618C44.5274 2.02838 49.2634 9.37622 47.6815 16.8172Z" fill="#00D0AB"/>
<path id="Fill-820" fill-rule="evenodd" clip-rule="evenodd" d="M23.3543 18.8958C23.3289 18.8912 23.3034 18.8866 23.278 18.8797C23.2477 18.8725 23.2199 18.8634 23.1897 18.8542C23.2432 18.8706 23.2989 18.8842 23.3543 18.8958Z" fill="#00D0AB"/>
<path id="Fill-821" fill-rule="evenodd" clip-rule="evenodd" d="M23.4262 18.9121C23.3753 18.9027 23.3266 18.8936 23.2778 18.8794C23.2478 18.8725 23.22 18.8634 23.1898 18.8542C23.243 18.8703 23.2987 18.8842 23.3544 18.8958C23.3774 18.9027 23.4029 18.9073 23.4262 18.9121Z" fill="#00D0AB"/>
<path id="Fill-822" fill-rule="evenodd" clip-rule="evenodd" d="M27.7667 36.1803V36.1827C27.7276 36.4491 27.6791 36.7133 27.6215 36.9773C27.0818 39.5218 25.8713 41.7509 24.2183 43.5214C21.6612 46.2579 18.0433 47.8964 14.1973 47.8964C13.2497 47.8964 12.2883 47.7968 11.3269 47.5904C7.73904 46.8188 4.66537 44.6917 2.6711 41.5981C0.67659 38.5045 0.000769168 34.8154 0.766381 31.2121C1.34978 28.4638 2.71934 26.0144 4.70238 24.1165C6.72459 25.9705 9.2791 27.2031 12.0347 27.5969C11.4974 27.7777 10.9787 28.0304 10.4898 28.3477C8.96101 29.342 7.91193 30.8758 7.53152 32.6626C7.1511 34.4516 7.48781 36.2823 8.47695 37.8185C9.46608 39.3526 10.9901 40.4093 12.7702 40.7917C16.2195 41.5309 19.6275 39.4961 20.6835 36.187V36.1849C20.7525 35.9693 20.8103 35.7493 20.8588 35.5246C21.0317 34.7043 21.057 33.8698 20.9324 33.0519C20.6396 31.1542 21.9356 29.3789 23.8214 29.0871C23.9575 29.0662 24.0913 29.0523 24.225 29.0475C25.9544 28.9805 27.4969 30.2319 27.7691 31.993C27.9812 33.3833 27.9812 34.7897 27.7667 36.1803Z" fill="#00D0AB"/>
<path id="Fill-823" fill-rule="evenodd" clip-rule="evenodd" d="M45.7769 41.5981C43.7848 44.6917 40.7113 46.8188 37.1235 47.5904C36.1597 47.7968 35.1889 47.8988 34.2275 47.8988C31.6059 47.8988 29.0395 47.1409 26.7892 45.6764C25.8344 45.0577 24.9745 44.3324 24.2182 43.5215C25.8715 41.751 27.082 39.5219 27.6214 36.9774C27.679 36.7132 27.7275 36.4492 27.7669 36.1828C28.8159 39.4938 32.2285 41.5309 35.6778 40.7917C39.3532 40.0014 41.7026 36.3563 40.9186 32.6627C40.5382 30.8759 39.4867 29.342 37.9605 28.3477C37.4533 28.0189 36.9136 27.7592 36.3534 27.5785C35.2281 27.2077 34.02 27.1429 32.8303 27.3978C30.9626 27.7962 29.1249 26.6032 28.7259 24.7235C28.6889 24.55 28.666 24.376 28.6545 24.2046C28.6521 24.1465 28.6497 24.0887 28.6497 24.033V23.9936C28.6497 23.9358 28.6521 23.8801 28.6545 23.8223C28.7307 22.2882 29.8189 20.9348 31.3867 20.5988C33.0607 20.2398 34.7324 20.205 36.3326 20.4529C39.0834 20.8794 41.6267 22.1399 43.6327 24.0215C45.6155 25.8824 47.0727 28.3477 47.6816 31.2121C48.4491 34.8152 47.7714 38.5043 45.7769 41.5981Z" fill="#00FFB8"/>
</g>
</g>
</g>
</svg>
