<svg width="48" height="48" viewBox="0 0 48 48" fill="none" xmlns="http://www.w3.org/2000/svg">
<g id="Page-1">
<g id="Artboard">
<g id="BTS">
<path id="Fill-45" fill-rule="evenodd" clip-rule="evenodd" d="M23.8953 47.8526C10.7273 47.8526 0.01474 38.5313 0.01474 27.0734C0.01474 15.6155 10.7273 6.29419 23.8953 6.29419C37.0631 6.29419 47.7759 15.6155 47.7759 27.0734C47.7759 38.5313 37.0631 47.8526 23.8953 47.8526Z" fill="#74C4EE"/>
<path id="Fill-47" fill-rule="evenodd" clip-rule="evenodd" d="M23.8953 7.56665C11.534 7.56665 1.47717 16.3174 1.47717 27.0731C1.47717 37.8291 11.534 46.5798 23.8953 46.5798C36.2566 46.5798 46.3132 37.8291 46.3132 27.0731C46.3132 16.3174 36.2566 7.56665 23.8953 7.56665Z" fill="white"/>
<path id="Fill-49" fill-rule="evenodd" clip-rule="evenodd" d="M21.7854 31.6575C22.2828 31.9473 22.8533 32.1578 23.4601 32.2611V41.7314C19.8733 41.5527 16.6104 40.306 14.0915 38.3523L21.7854 31.6575Z" fill="#0D568D"/>
<path id="Fill-51" fill-rule="evenodd" clip-rule="evenodd" d="M26.9604 31.6575L34.6542 38.3523C32.1353 40.306 28.8725 41.5527 25.2856 41.7314V32.2611C25.8925 32.1578 26.463 31.9473 26.9604 31.6575Z" fill="#1B7EAD"/>
<path id="Fill-53" fill-rule="evenodd" clip-rule="evenodd" d="M28.9455 29.0767H39.8293C39.6239 32.1977 38.1911 35.0328 35.9458 37.2246L28.2517 30.53C28.5849 30.0971 28.8268 29.6049 28.9455 29.0767Z" fill="#1B7EAD"/>
<path id="Fill-55" fill-rule="evenodd" clip-rule="evenodd" d="M19.8003 29.0767C19.919 29.6049 20.1609 30.0971 20.494 30.53L12.7999 37.2246C10.5547 35.0328 9.12185 32.1977 8.91647 29.0767H19.8003Z" fill="#0D568D"/>
<path id="Fill-57" fill-rule="evenodd" clip-rule="evenodd" d="M34.6543 18.2124L26.9605 24.9073C26.463 24.6135 25.8925 24.4069 25.2857 24.3036V14.8293C28.8726 15.008 32.1354 16.2548 34.6543 18.2124Z" fill="#74C4EE"/>
<path id="Fill-59" fill-rule="evenodd" clip-rule="evenodd" d="M39.8293 27.4883H28.9455C28.8268 26.9601 28.5849 26.4678 28.2518 26.031L35.9459 19.3362C38.1911 21.5282 39.624 24.3633 39.8293 27.4883Z" fill="#4CA1D6"/>
<path id="Fill-61" fill-rule="evenodd" clip-rule="evenodd" d="M22.6989 23.8579V23.8714L22.69 23.8623C22.6946 23.8579 22.6989 23.8579 22.6989 23.8579Z" fill="#103D54"/>
<path id="Fill-63" fill-rule="evenodd" clip-rule="evenodd" d="M20.494 26.0309C20.1608 26.4676 19.9189 26.9601 19.8002 27.4881H8.91641V15.9211L20.494 26.0309Z" fill="#024E7B"/>
<path id="Fill-65" fill-rule="evenodd" clip-rule="evenodd" d="M23.4602 14.8293V24.3036C23.1956 24.3472 22.9355 24.4148 22.6843 24.4981C22.6843 24.4981 22.6798 24.4981 22.6752 24.5022C22.365 24.6053 22.0684 24.7404 21.7945 24.9031L8.91641 13.6977V0.173096L23.4602 14.8293Z" fill="#024E7B"/>
<path id="Fill-67" fill-rule="evenodd" clip-rule="evenodd" d="M22.6989 23.8579V23.8714L22.69 23.8623C22.6946 23.8579 22.6989 23.8579 22.6989 23.8579Z" fill="#525252"/>
</g>
</g>
</g>
</svg>
