<svg width="48" height="48" viewBox="0 0 48 48" fill="none" xmlns="http://www.w3.org/2000/svg">
<g id="Page-1">
<g id="Artboard">
<g id="BTC">
<path id="Fill-504" fill-rule="evenodd" clip-rule="evenodd" d="M47.7963 23.9993C47.7963 37.2542 37.1047 47.9993 23.9157 47.9993C10.7267 47.9993 0.0350952 37.2542 0.0350952 23.9993C0.0350952 10.7443 10.7267 -0.000732422 23.9157 -0.000732422C37.1047 -0.000732422 47.7963 10.7443 47.7963 23.9993Z" fill="#F7931A"/>
<path id="Fill-505" fill-rule="evenodd" clip-rule="evenodd" d="M29.7137 31.0134C29.5138 31.6886 29.0641 32.2449 28.4475 32.5799C27.8309 32.9154 27.1217 32.9894 26.4499 32.7882L19.7249 30.7754L21.2232 25.7202L27.9477 27.7334H27.9479C29.3344 28.1483 30.1268 29.6198 29.7137 31.0134ZM31.9818 20.6538C32.3152 21.2735 32.3888 21.9863 32.1889 22.6617C31.7758 24.0549 30.3109 24.8507 28.9251 24.4365H28.9249L22.2001 22.4236L23.6979 17.3685L30.4229 19.3814C31.0947 19.5825 31.6482 20.0342 31.9818 20.6538ZM34.9922 19.017C34.2235 17.5893 32.9476 16.5477 31.3999 16.0845L30.5101 15.8183L31.7557 11.615L28.5598 10.6583L27.3141 14.8617L24.5855 14.045L25.8314 9.8416L25.0658 9.6124L21.9642 8.68408L20.7635 12.7358L16.9836 11.6044L15.9169 15.2044L19.6967 16.336L15.8135 29.4395L12.0337 28.3082L10.9669 31.9084L14.7465 33.0395L13.7332 36.4593L14.4986 36.6885L17.6002 37.6168L18.6586 34.0454L21.3937 34.864L20.3353 38.4357L23.5183 39.3885L24.5767 35.8168L25.4727 36.0849C26.0439 36.2558 26.6273 36.3405 27.2072 36.3405C28.1982 36.3405 29.1799 36.093 30.0762 35.6056C31.4968 34.833 32.533 33.551 32.9941 31.995C33.4789 30.3585 33.2396 28.6773 32.4685 27.2934C33.8684 26.5593 34.9839 25.2808 35.4691 23.6435C35.9303 22.0876 35.7607 20.4446 34.9922 19.017Z" fill="white"/>
</g>
</g>
</g>
</svg>
