<svg width="72" height="72" viewBox="0 0 72 72" fill="none" xmlns="http://www.w3.org/2000/svg">
<g id="Component 1">
<path id="Vector (Stroke)" fill-rule="evenodd" clip-rule="evenodd" d="M8.06802 17.068C8.91193 16.2241 10.0565 15.75 11.25 15.75H28.125C29.3185 15.75 30.4631 16.2241 31.307 17.068C32.1509 17.9119 32.625 19.0565 32.625 20.25V45C32.625 48.5804 31.2027 52.0142 28.6709 54.5459C26.1392 57.0777 22.7054 58.5 19.125 58.5C17.8824 58.5 16.875 57.4926 16.875 56.25C16.875 55.0074 17.8824 54 19.125 54C21.5119 54 23.8011 53.0518 25.489 51.364C27.1768 49.6761 28.125 47.3869 28.125 45V42.75H11.25C10.0565 42.75 8.91194 42.2759 8.06802 41.432C7.22411 40.5881 6.75 39.4435 6.75 38.25V20.25C6.75 19.0565 7.22411 17.9119 8.06802 17.068ZM28.125 38.25V20.25L11.25 20.25L11.25 38.25H28.125Z" fill="white" fill-opacity="0.1"/>
<path id="Vector (Stroke)_2" fill-rule="evenodd" clip-rule="evenodd" d="M40.693 17.068C41.5369 16.2241 42.6815 15.75 43.875 15.75H60.75C61.9435 15.75 63.0881 16.2241 63.932 17.068C64.7759 17.9119 65.25 19.0565 65.25 20.25V45C65.25 48.5804 63.8277 52.0142 61.2959 54.5459C58.7642 57.0777 55.3304 58.5 51.75 58.5C50.5074 58.5 49.5 57.4926 49.5 56.25C49.5 55.0074 50.5074 54 51.75 54C54.1369 54 56.4261 53.0518 58.114 51.364C59.8018 49.6761 60.75 47.3869 60.75 45V42.75H43.875C42.6815 42.75 41.5369 42.2759 40.693 41.432C39.8491 40.5881 39.375 39.4435 39.375 38.25V20.25C39.375 19.0565 39.8491 17.9119 40.693 17.068ZM60.75 38.25L60.75 20.25H43.875L43.875 38.25H60.75Z" fill="white" fill-opacity="0.1"/>
</g>
</svg>
